Coordinates
version=1
nRows=19
nColumns=24
inDegrees=yes

Units are S.I. units (second, meters, Newtons, ...)
Angles are in degrees.

endheader
time	pelvis_tilt	pelvis_list	pelvis_rotation	pelvis_tx	pelvis_ty	pelvis_tz	hip_flexion_r	hip_adduction_r	hip_rotation_r	knee_angle_r	ankle_angle_r	subtalar_angle_r	mtp_angle_r	hip_flexion_l	hip_adduction_l	hip_rotation_l	knee_angle_l	ankle_angle_l	subtalar_angle_l	mtp_angle_l	lumbar_extension	lumbar_bending	lumbar_rotation
      4.20000000	     -6.16812083	      2.99287944	      7.17512667	     -0.40957932	     -0.03509835	     -0.12417871	     36.30562373	     -1.38458341	     -2.97428357	    -17.66876082	      1.69928471	      9.62191540	     10.08586842	     -7.15282646	      8.19414677	     -6.26323259	    -24.92671287	     14.19670757	     23.81514039	     -7.83579344	      4.29399567	     -6.41259946	    -10.81560849
      4.20500000	     -6.19556373	      2.72665010	      7.28833199	     -0.40195195	     -0.03514705	     -0.12425719	     36.17293460	     -1.04708499	     -2.76685434	    -18.21985177	      0.70007756	      9.17717026	     10.76523767	     -7.23288524	      7.65463578	     -6.38846241	    -25.32441607	     12.18186374	     24.01480804	     -2.91621915	      4.48131893	     -6.07913101	    -10.86438778
      4.21000000	     -6.26428773	      2.46671097	      7.18905015	     -0.39424852	     -0.03529063	     -0.12393262	     36.14923382	     -0.53953538	     -2.24594759	    -18.88955137	     -0.17015217	      8.68588232	     10.49651095	     -7.17096017	      7.08080644	     -6.89528178	    -26.06312352	     10.89333805	     24.66604431	     -1.08129537	      4.74007568	     -5.74597005	    -10.58740456
      4.21500000	     -6.31653242	      2.14451987	      7.25238430	     -0.38663853	     -0.03523234	     -0.12390586	     36.06079105	     -0.10627910	     -1.94206711	    -19.45433545	     -1.08720938	      8.43828827	     10.75892277	     -7.09469102	      6.43700660	     -7.17396267	    -26.60566520	      8.71705995	     24.97446100	      3.92115680	      4.94935054	     -5.34997536	    -10.57355758
      4.22000000	     -6.38035723	      1.81876849	      7.18320314	     -0.37900141	     -0.03518779	     -0.12362389	     36.02022142	      0.44893260	     -1.42388191	    -20.08085474	     -1.97223630	      8.10164689	     10.49986399	     -6.93690626	      5.76795986	     -7.62524799	    -27.33111648	      6.81140648	     25.45087203	      7.41776430	      5.17679864	     -4.94756288	    -10.36433872
      4.22500000	     -6.46722698	      1.50110329	      7.02221459	     -0.37130097	     -0.03511720	     -0.12324771	     36.00036659	      1.08279403	     -0.70067360	    -20.68555127	     -3.00353795	      7.49142786	     10.22659388	     -6.72826611	      5.13481701	     -8.03958378	    -28.11496367	      4.90698077	     25.80026840	     10.04350841	      5.44907066	     -4.53723964	    -10.02995125
      4.23000000	     -6.58998611	      1.14542728	      6.92082652	     -0.36359022	     -0.03504941	     -0.12295410	     36.01626483	      1.69892083	     -0.11018652	    -21.31987781	     -3.82441825	      7.14388011	      9.93356858	     -6.41635967	      4.43869008	     -8.43536795	    -28.90708165	      2.66896341	     26.08930621	     13.68956002	      5.75461929	     -4.10065980	     -9.80672081
      4.23500000	     -6.66542186	      0.81235552	      6.82894021	     -0.35596024	     -0.03493500	     -0.12266677	     35.97889714	      2.30110993	      0.52831002	    -21.97430761	     -4.53080661	      6.81268158	      9.64774530	     -6.09341686	      3.76636388	     -8.72955606	    -29.77949071	      0.37089192	     26.28148325	     16.95149528	      5.98353824	     -3.68700146	     -9.61256230
      4.24000000	     -6.73962012	      0.48757660	      6.68765704	     -0.34834547	     -0.03484339	     -0.12232600	     35.93484550	      2.93792636	      1.23313932	    -22.62783825	     -5.19305154	      6.38060112	      9.33695710	     -5.71837640	      3.11724903	     -8.98422430	    -30.73536783	     -1.96094627	     26.35982116	     19.65992149	      6.20382428	     -3.27792470	     -9.38397505
      4.24500000	     -6.84329092	      0.14118757	      6.53436513	     -0.34069393	     -0.03481502	     -0.12198083	     35.90490649	      3.59975716	      1.90402889	    -23.26292487	     -5.75689240	      5.91166285	      9.06857636	     -5.25250858	      2.45537779	     -9.18916187	    -31.77997657	     -4.32121128	     26.34507657	     21.91878515	      6.46403701	     -2.84437012	     -9.13822625
      4.25000000	     -6.96752649	     -0.20931493	      6.37195072	     -0.33303457	     -0.03483422	     -0.12163599	     35.86291789	      4.27616106	      2.58308513	    -23.84792637	     -6.25280836	      5.28217084	      8.82616942	     -4.70056332	      1.80908313	     -9.32267754	    -32.93563516	     -6.67367368	     26.17442060	     23.35609207	      6.75194416	     -2.40897791	     -8.87117861
      4.25500000	     -7.05075398	     -0.53102066	      6.20407758	     -0.32548535	     -0.03482388	     -0.12130433	     35.75717364	      4.92774101	      3.24278263	    -24.40380892	     -6.66609738	      4.59554765	      8.64767022	     -4.13818184	      1.22385816	     -9.34639037	    -34.13313636	     -9.14735564	     25.73081576	     24.44608480	      6.97160339	     -1.99830857	     -8.62017005
      4.26000000	     -7.04623631	     -0.84758152	      6.09402909	     -0.31808174	     -0.03474778	     -0.12112928	     35.53747046	      5.51362524	      3.72009784	    -24.93515821	     -6.82890020	      4.09621955	      8.55601497	     -3.57220499	      0.67065549	     -9.25475439	    -35.50431478	    -11.48359905	     25.03129119	     24.19691439	      7.06257543	     -1.58681113	     -8.45090266
      4.26500000	     -7.14886008	     -1.13603626	      5.87919966	     -0.31065595	     -0.03479610	     -0.12066878	     35.39826513	      6.16589920	      4.37718859	    -25.40412326	     -7.11444226	      3.22019696	      8.44413304	     -2.88079815	      0.15893555	     -9.19588790	    -36.82629209	    -14.02474172	     24.28588497	     24.17110783	      7.27621602	     -1.22472482	     -8.15533430
      4.27000000	     -7.18287886	     -1.48316918	      5.69213744	     -0.30334303	     -0.03479360	     -0.12031869	     35.15877143	      6.82356664	      4.83606811	    -25.80663790	     -7.24060492	      2.56089959	      8.48121527	     -2.17950052	     -0.41441904	     -9.17063857	    -38.23976675	    -16.60387576	     23.20851207	     23.79388570	      7.39890115	     -0.78626202	     -7.91825841
      4.27500000	     -7.20332796	     -1.84278328	      5.50775813	     -0.29614539	     -0.03477142	     -0.11993492	     34.88109729	      7.48561190	      5.23628650	    -26.15962803	     -7.30701661	      1.91769340	      8.52818090	     -1.42861361	     -0.98876575	     -9.12308066	    -39.71074551	    -19.21735028	     21.86313605	     22.99236719	      7.48678809	     -0.34184113	     -7.65434049
      4.28000000	     -7.32786540	     -2.19897778	      5.25711680	     -0.28899727	     -0.03489890	     -0.11945334	     34.68562791	      8.16754321	      5.67758872	    -26.41503042	     -7.49929687	      1.12015585	      9.10186504	     -0.49231153	     -1.55637554	     -9.18133954	    -41.36144039	    -21.52964984	     20.43745077	     20.68699894	      7.68769748	      0.09614705	     -7.32254818
      4.28500000	     -7.28821615	     -2.54160004	      5.11438485	     -0.28204772	     -0.03473359	     -0.11899125	     34.28400770	      8.79425030	      5.99153990	    -26.66094055	     -7.44054921	      0.47050440	      9.08261782	      0.30641724	     -2.10984816	     -9.11982537	    -42.88691680	    -24.23891014	     18.57582593	     19.03220933	      7.67011647	      0.48709834	     -7.11064808
      4.29000000	     -7.40748317	     -2.93343537	      4.85332322	     -0.27506398	     -0.03483677	     -0.11846357	     34.03124471	      9.49781228	      6.35275635	    -26.83176775	     -7.39420905	     -0.12488688	      9.45225689	      1.37787483	     -2.73065593	     -9.26656635	    -44.78930877	    -25.93949019	     16.91784284	     14.20957908	      7.84643028	      0.95483262	     -6.76493457
